<?xml version="1.0" encoding="UTF-8" standalone="no"?>
<!DOCTYPE svg PUBLIC "-//W3C//DTD SVG 1.1//EN"
 "http://www.w3.org/Graphics/SVG/1.1/DTD/svg11.dtd">
<!-- Generated by graphviz version 2.40.1 (20161225.0304)
 -->
<!-- Title: G Pages: 1 -->
<svg width="504pt" height="178pt"
 viewBox="0.00 0.00 504.00 177.92" xmlns="http://www.w3.org/2000/svg" xmlns:xlink="http://www.w3.org/1999/xlink">
<g id="graph0" class="graph" transform="scale(.9151 .9151) rotate(0) translate(4 190.4264)">
<title>G</title>
<polygon fill="#ffffff" stroke="transparent" points="-4,4 -4,-190.4264 546.7495,-190.4264 546.7495,4 -4,4"/>
<!-- 0 -->
<g id="node1" class="node">
<title>0</title>
<ellipse fill="none" stroke="#000000" cx="17.5362" cy="-165.2132" rx="17.5726" ry="17.5726"/>
<text text-anchor="middle" x="17.5362" y="-161.0132" font-family="Times,serif" font-size="14.00" fill="#000000">0</text>
</g>
<!-- 9 -->
<g id="node10" class="node">
<title>9</title>
<ellipse fill="none" stroke="#000000" cx="305.5362" cy="-21.2132" rx="17.5726" ry="17.5726"/>
<text text-anchor="middle" x="305.5362" y="-17.0132" font-family="Times,serif" font-size="14.00" fill="#000000">9</text>
</g>
<!-- 0&#45;&#45;9 -->
<g id="edge2" class="edge">
<title>0&#45;&#45;9</title>
<path fill="none" stroke="#000000" d="M33.4306,-157.266C83.7833,-132.0897 239.4069,-54.2779 289.691,-29.1358"/>
</g>
<!-- 1 -->
<g id="node2" class="node">
<title>1</title>
<ellipse fill="none" stroke="#000000" cx="17.5362" cy="-21.2132" rx="17.5726" ry="17.5726"/>
<text text-anchor="middle" x="17.5362" y="-17.0132" font-family="Times,serif" font-size="14.00" fill="#000000">1</text>
</g>
<!-- 2 -->
<g id="node3" class="node">
<title>2</title>
<ellipse fill="none" stroke="#000000" cx="89.5362" cy="-165.2132" rx="17.5726" ry="17.5726"/>
<text text-anchor="middle" x="89.5362" y="-161.0132" font-family="Times,serif" font-size="14.00" fill="#000000">2</text>
</g>
<!-- 7 -->
<g id="node8" class="node">
<title>7</title>
<ellipse fill="none" stroke="#000000" cx="233.5362" cy="-21.2132" rx="17.5726" ry="17.5726"/>
<text text-anchor="middle" x="233.5362" y="-17.0132" font-family="Times,serif" font-size="14.00" fill="#000000">7</text>
</g>
<!-- 2&#45;&#45;7 -->
<g id="edge6" class="edge">
<title>2&#45;&#45;7</title>
<path fill="none" stroke="#000000" d="M102.0634,-152.6861C129.2971,-125.4523 193.6351,-61.1143 220.9355,-33.8139"/>
</g>
<!-- 3 -->
<g id="node4" class="node">
<title>3</title>
<ellipse fill="none" stroke="#000000" cx="89.5362" cy="-21.2132" rx="17.5726" ry="17.5726"/>
<text text-anchor="middle" x="89.5362" y="-17.0132" font-family="Times,serif" font-size="14.00" fill="#000000">3</text>
</g>
<!-- 4 -->
<g id="node5" class="node">
<title>4</title>
<ellipse fill="none" stroke="#000000" cx="161.5362" cy="-165.2132" rx="17.5726" ry="17.5726"/>
<text text-anchor="middle" x="161.5362" y="-161.0132" font-family="Times,serif" font-size="14.00" fill="#000000">4</text>
</g>
<!-- 4&#45;&#45;7 -->
<g id="edge5" class="edge">
<title>4&#45;&#45;7</title>
<path fill="none" stroke="#000000" d="M169.5166,-149.2525C183.3565,-121.5727 211.6554,-64.9749 225.5201,-37.2454"/>
</g>
<!-- 5 -->
<g id="node6" class="node">
<title>5</title>
<ellipse fill="none" stroke="#000000" cx="161.5362" cy="-21.2132" rx="17.5726" ry="17.5726"/>
<text text-anchor="middle" x="161.5362" y="-17.0132" font-family="Times,serif" font-size="14.00" fill="#000000">5</text>
</g>
<!-- 6 -->
<g id="node7" class="node">
<title>6</title>
<ellipse fill="none" stroke="#000000" cx="233.5362" cy="-165.2132" rx="17.5726" ry="17.5726"/>
<text text-anchor="middle" x="233.5362" y="-161.0132" font-family="Times,serif" font-size="14.00" fill="#000000">6</text>
</g>
<!-- 6&#45;&#45;7 -->
<g id="edge4" class="edge">
<title>6&#45;&#45;7</title>
<path fill="none" stroke="#000000" d="M233.5362,-147.556C233.5362,-119.9185 233.5362,-66.741 233.5362,-39.0149"/>
</g>
<!-- 8 -->
<g id="node9" class="node">
<title>8</title>
<ellipse fill="none" stroke="#000000" cx="305.5362" cy="-165.2132" rx="17.5726" ry="17.5726"/>
<text text-anchor="middle" x="305.5362" y="-161.0132" font-family="Times,serif" font-size="14.00" fill="#000000">8</text>
</g>
<!-- 8&#45;&#45;9 -->
<g id="edge8" class="edge">
<title>8&#45;&#45;9</title>
<path fill="none" stroke="#000000" d="M305.5362,-147.556C305.5362,-119.9185 305.5362,-66.741 305.5362,-39.0149"/>
</g>
<!-- 10 -->
<g id="node11" class="node">
<title>10</title>
<ellipse fill="none" stroke="#000000" cx="377.5362" cy="-165.2132" rx="21.4286" ry="21.4286"/>
<text text-anchor="middle" x="377.5362" y="-161.0132" font-family="Times,serif" font-size="14.00" fill="#000000">10</text>
</g>
<!-- 11 -->
<g id="node12" class="node">
<title>11</title>
<ellipse fill="none" stroke="#000000" cx="377.5362" cy="-21.2132" rx="21.4286" ry="21.4286"/>
<text text-anchor="middle" x="377.5362" y="-17.0132" font-family="Times,serif" font-size="14.00" fill="#000000">11</text>
</g>
<!-- 11&#45;&#45;2 -->
<g id="edge10" class="edge">
<title>11&#45;&#45;2</title>
<path fill="none" stroke="#000000" d="M358.1926,-30.885C304.5918,-57.6854 154.8645,-132.5491 105.5282,-157.2172"/>
</g>
<!-- 11&#45;&#45;8 -->
<g id="edge3" class="edge">
<title>11&#45;&#45;8</title>
<path fill="none" stroke="#000000" d="M367.9752,-40.3353C353.6687,-68.9484 326.9466,-122.3924 313.5811,-149.1235"/>
</g>
<!-- 12 -->
<g id="node13" class="node">
<title>12</title>
<ellipse fill="none" stroke="#000000" cx="449.5362" cy="-165.2132" rx="21.4286" ry="21.4286"/>
<text text-anchor="middle" x="449.5362" y="-161.0132" font-family="Times,serif" font-size="14.00" fill="#000000">12</text>
</g>
<!-- 13 -->
<g id="node14" class="node">
<title>13</title>
<ellipse fill="none" stroke="#000000" cx="449.5362" cy="-21.2132" rx="21.4286" ry="21.4286"/>
<text text-anchor="middle" x="449.5362" y="-17.0132" font-family="Times,serif" font-size="14.00" fill="#000000">13</text>
</g>
<!-- 13&#45;&#45;4 -->
<g id="edge7" class="edge">
<title>13&#45;&#45;4</title>
<path fill="none" stroke="#000000" d="M430.1926,-30.885C376.5918,-57.6854 226.8645,-132.5491 177.5282,-157.2172"/>
</g>
<!-- 13&#45;&#45;8 -->
<g id="edge9" class="edge">
<title>13&#45;&#45;8</title>
<path fill="none" stroke="#000000" d="M434.3979,-36.3516C405.8028,-64.9467 344.355,-126.3945 317.9792,-152.7702"/>
</g>
<!-- 14 -->
<g id="node15" class="node">
<title>14</title>
<ellipse fill="none" stroke="#000000" cx="521.5362" cy="-165.2132" rx="21.4286" ry="21.4286"/>
<text text-anchor="middle" x="521.5362" y="-161.0132" font-family="Times,serif" font-size="14.00" fill="#000000">14</text>
</g>
<!-- 15 -->
<g id="node16" class="node">
<title>15</title>
<ellipse fill="none" stroke="#000000" cx="521.5362" cy="-21.2132" rx="21.4286" ry="21.4286"/>
<text text-anchor="middle" x="521.5362" y="-17.0132" font-family="Times,serif" font-size="14.00" fill="#000000">15</text>
</g>
<!-- 15&#45;&#45;6 -->
<g id="edge1" class="edge">
<title>15&#45;&#45;6</title>
<path fill="none" stroke="#000000" d="M502.1926,-30.885C448.5918,-57.6854 298.8645,-132.5491 249.5282,-157.2172"/>
</g>
</g>
</svg>
