<?xml version="1.0" encoding="UTF-8" standalone="no"?>
<!DOCTYPE svg PUBLIC "-//W3C//DTD SVG 1.1//EN"
 "http://www.w3.org/Graphics/SVG/1.1/DTD/svg11.dtd">
<!-- Generated by graphviz version 2.40.1 (20161225.0304)
 -->
<!-- Title: G Pages: 1 -->
<svg width="504pt" height="157pt"
 viewBox="0.00 0.00 504.00 157.27" xmlns="http://www.w3.org/2000/svg" xmlns:xlink="http://www.w3.org/1999/xlink">
<g id="graph0" class="graph" transform="scale(.8896 .8896) rotate(0) translate(4 172.8)">
<title>G</title>
<polygon fill="#ffffff" stroke="transparent" points="-4,4 -4,-172.8 562.577,-172.8 562.577,4 -4,4"/>
<!-- CXLP| -->
<g id="node1" class="node">
<title>CXLP|</title>
<polygon fill="none" stroke="#000000" points="54.3671,-168.7008 .2099,-168.7008 .2099,-144.0992 54.3671,-144.0992 54.3671,-168.7008"/>
<text text-anchor="middle" x="27.2885" y="-152.2" font-family="Times,serif" font-size="14.00" fill="#000000">CXLP|</text>
</g>
<!-- XL|CP -->
<g id="node10" class="node">
<title>XL|CP</title>
<polygon fill="none" stroke="#000000" points="342.3671,-24.7008 288.2099,-24.7008 288.2099,-.0992 342.3671,-.0992 342.3671,-24.7008"/>
<text text-anchor="middle" x="315.2885" y="-8.2" font-family="Times,serif" font-size="14.00" fill="#000000">XL|CP</text>
</g>
<!-- CXLP|&#45;&gt;XL|CP -->
<g id="edge1" class="edge">
<title>CXLP|&#45;&gt;XL|CP</title>
<path fill="none" stroke="#000000" d="M52.0925,-143.998C103.662,-118.2133 222.5204,-58.784 281.2199,-29.4343"/>
<polygon fill="#000000" stroke="#000000" points="283.063,-32.4259 290.4421,-24.8232 279.9325,-26.1649 283.063,-32.4259"/>
</g>
<!-- CXL|P -->
<g id="node2" class="node">
<title>CXL|P</title>
<polygon fill="none" stroke="#000000" points="54.3671,-24.7008 .2099,-24.7008 .2099,-.0992 54.3671,-.0992 54.3671,-24.7008"/>
<text text-anchor="middle" x="27.2885" y="-8.2" font-family="Times,serif" font-size="14.00" fill="#000000">CXL|P</text>
</g>
<!-- CXP|L -->
<g id="node3" class="node">
<title>CXP|L</title>
<polygon fill="none" stroke="#000000" points="126.3671,-168.7008 72.2099,-168.7008 72.2099,-144.0992 126.3671,-144.0992 126.3671,-168.7008"/>
<text text-anchor="middle" x="99.2885" y="-152.2" font-family="Times,serif" font-size="14.00" fill="#000000">CXP|L</text>
</g>
<!-- C|XLP -->
<g id="node8" class="node">
<title>C|XLP</title>
<polygon fill="none" stroke="#000000" points="270.3671,-24.7008 216.2099,-24.7008 216.2099,-.0992 270.3671,-.0992 270.3671,-24.7008"/>
<text text-anchor="middle" x="243.2885" y="-8.2" font-family="Times,serif" font-size="14.00" fill="#000000">C|XLP</text>
</g>
<!-- CXP|L&#45;&gt;C|XLP -->
<g id="edge2" class="edge">
<title>CXP|L&#45;&gt;C|XLP</title>
<path fill="none" stroke="#000000" d="M111.8156,-143.8729C136.8153,-118.8732 193.0816,-62.6069 223.2625,-32.426"/>
<polygon fill="#000000" stroke="#000000" points="226.0916,-34.5467 230.6878,-25.0007 221.1418,-29.5969 226.0916,-34.5467"/>
</g>
<!-- CX|LP -->
<g id="node4" class="node">
<title>CX|LP</title>
<polygon fill="none" stroke="#000000" points="126.3671,-24.7008 72.2099,-24.7008 72.2099,-.0992 126.3671,-.0992 126.3671,-24.7008"/>
<text text-anchor="middle" x="99.2885" y="-8.2" font-family="Times,serif" font-size="14.00" fill="#000000">CX|LP</text>
</g>
<!-- CLP|X -->
<g id="node5" class="node">
<title>CLP|X</title>
<polygon fill="none" stroke="#000000" points="198.3671,-168.7008 144.2099,-168.7008 144.2099,-144.0992 198.3671,-144.0992 198.3671,-168.7008"/>
<text text-anchor="middle" x="171.2885" y="-152.2" font-family="Times,serif" font-size="14.00" fill="#000000">CLP|X</text>
</g>
<!-- CL|XP -->
<g id="node6" class="node">
<title>CL|XP</title>
<polygon fill="none" stroke="#000000" points="198.3671,-24.7008 144.2099,-24.7008 144.2099,-.0992 198.3671,-.0992 198.3671,-24.7008"/>
<text text-anchor="middle" x="171.2885" y="-8.2" font-family="Times,serif" font-size="14.00" fill="#000000">CL|XP</text>
</g>
<!-- CP|XL -->
<g id="node7" class="node">
<title>CP|XL</title>
<polygon fill="none" stroke="#000000" points="270.3671,-168.7008 216.2099,-168.7008 216.2099,-144.0992 270.3671,-144.0992 270.3671,-168.7008"/>
<text text-anchor="middle" x="243.2885" y="-152.2" font-family="Times,serif" font-size="14.00" fill="#000000">CP|XL</text>
</g>
<!-- |CXLP -->
<g id="node16" class="node">
<title>|CXLP</title>
<polygon fill="none" stroke="#000000" points="558.3671,-24.7008 504.2099,-24.7008 504.2099,-.0992 558.3671,-.0992 558.3671,-24.7008"/>
<text text-anchor="middle" x="531.2885" y="-8.2" font-family="Times,serif" font-size="14.00" fill="#000000">|CXLP</text>
</g>
<!-- CP|XL&#45;&gt;|CXLP -->
<g id="edge3" class="edge">
<title>CP|XL&#45;&gt;|CXLP</title>
<path fill="none" stroke="#000000" d="M268.0925,-143.998C319.662,-118.2133 438.5204,-58.784 497.2199,-29.4343"/>
<polygon fill="#000000" stroke="#000000" points="499.063,-32.4259 506.4421,-24.8232 495.9325,-26.1649 499.063,-32.4259"/>
</g>
<!-- C|XLP&#45;&gt;CP|XL -->
<g id="edge4" class="edge">
<title>C|XLP&#45;&gt;CP|XL</title>
<path fill="none" stroke="#000000" d="M243.2885,-24.9271C243.2885,-49.1822 243.2885,-102.8688 243.2885,-133.6091"/>
<polygon fill="#000000" stroke="#000000" points="239.7886,-133.7992 243.2885,-143.7993 246.7886,-133.7993 239.7886,-133.7992"/>
</g>
<!-- XLP|C -->
<g id="node9" class="node">
<title>XLP|C</title>
<polygon fill="none" stroke="#000000" points="342.3671,-168.7008 288.2099,-168.7008 288.2099,-144.0992 342.3671,-144.0992 342.3671,-168.7008"/>
<text text-anchor="middle" x="315.2885" y="-152.2" font-family="Times,serif" font-size="14.00" fill="#000000">XLP|C</text>
</g>
<!-- X|CLP -->
<g id="node12" class="node">
<title>X|CLP</title>
<polygon fill="none" stroke="#000000" points="414.3671,-24.7008 360.2099,-24.7008 360.2099,-.0992 414.3671,-.0992 414.3671,-24.7008"/>
<text text-anchor="middle" x="387.2885" y="-8.2" font-family="Times,serif" font-size="14.00" fill="#000000">X|CLP</text>
</g>
<!-- XLP|C&#45;&gt;X|CLP -->
<g id="edge5" class="edge">
<title>XLP|C&#45;&gt;X|CLP</title>
<path fill="none" stroke="#000000" d="M321.5521,-143.8729C333.8392,-119.2987 361.2319,-64.5133 376.4938,-33.9895"/>
<polygon fill="#000000" stroke="#000000" points="379.6464,-35.5103 380.9881,-25.0007 373.3854,-32.3797 379.6464,-35.5103"/>
</g>
<!-- XL|CP&#45;&gt;XLP|C -->
<g id="edge6" class="edge">
<title>XL|CP&#45;&gt;XLP|C</title>
<path fill="none" stroke="#000000" d="M315.2885,-24.9271C315.2885,-49.1822 315.2885,-102.8688 315.2885,-133.6091"/>
<polygon fill="#000000" stroke="#000000" points="311.7886,-133.7992 315.2885,-143.7993 318.7886,-133.7993 311.7886,-133.7992"/>
</g>
<!-- XP|CL -->
<g id="node11" class="node">
<title>XP|CL</title>
<polygon fill="none" stroke="#000000" points="414.3671,-168.7008 360.2099,-168.7008 360.2099,-144.0992 414.3671,-144.0992 414.3671,-168.7008"/>
<text text-anchor="middle" x="387.2885" y="-152.2" font-family="Times,serif" font-size="14.00" fill="#000000">XP|CL</text>
</g>
<!-- X|CLP&#45;&gt;CXP|L -->
<g id="edge7" class="edge">
<title>X|CLP&#45;&gt;CXP|L</title>
<path fill="none" stroke="#000000" d="M362.4845,-24.802C310.915,-50.5867 192.0566,-110.016 133.3571,-139.3657"/>
<polygon fill="#000000" stroke="#000000" points="131.514,-136.3741 124.1349,-143.9768 134.6445,-142.6351 131.514,-136.3741"/>
</g>
<!-- LP|CX -->
<g id="node13" class="node">
<title>LP|CX</title>
<polygon fill="none" stroke="#000000" points="486.3671,-168.7008 432.2099,-168.7008 432.2099,-144.0992 486.3671,-144.0992 486.3671,-168.7008"/>
<text text-anchor="middle" x="459.2885" y="-152.2" font-family="Times,serif" font-size="14.00" fill="#000000">LP|CX</text>
</g>
<!-- L|CXP -->
<g id="node14" class="node">
<title>L|CXP</title>
<polygon fill="none" stroke="#000000" points="486.3671,-24.7008 432.2099,-24.7008 432.2099,-.0992 486.3671,-.0992 486.3671,-24.7008"/>
<text text-anchor="middle" x="459.2885" y="-8.2" font-family="Times,serif" font-size="14.00" fill="#000000">L|CXP</text>
</g>
<!-- P|CXL -->
<g id="node15" class="node">
<title>P|CXL</title>
<polygon fill="none" stroke="#000000" points="558.3671,-168.7008 504.2099,-168.7008 504.2099,-144.0992 558.3671,-144.0992 558.3671,-168.7008"/>
<text text-anchor="middle" x="531.2885" y="-152.2" font-family="Times,serif" font-size="14.00" fill="#000000">P|CXL</text>
</g>
</g>
</svg>
