<?xml version="1.0" encoding="UTF-8" standalone="no"?>
<!DOCTYPE svg PUBLIC "-//W3C//DTD SVG 1.1//EN"
 "http://www.w3.org/Graphics/SVG/1.1/DTD/svg11.dtd">
<!-- Generated by graphviz version 2.40.1 (20161225.0304)
 -->
<!-- Title: G Pages: 1 -->
<svg width="335pt" height="338pt"
 viewBox="0.00 0.00 334.75 338.43" xmlns="http://www.w3.org/2000/svg" xmlns:xlink="http://www.w3.org/1999/xlink">
<g id="graph0" class="graph" transform="scale(1 1) rotate(0) translate(4 334.4264)">
<title>G</title>
<polygon fill="#ffffff" stroke="transparent" points="-4,4 -4,-334.4264 330.7495,-334.4264 330.7495,4 -4,4"/>
<!-- 1 -->
<g id="node1" class="node">
<title>1</title>
<ellipse fill="none" stroke="#000000" cx="237.2132" cy="-165.2132" rx="17.5726" ry="17.5726"/>
<text text-anchor="middle" x="237.2132" y="-161.0132" font-family="Times,serif" font-size="14.00" fill="#000000">1</text>
</g>
<!-- 10 -->
<g id="node4" class="node">
<title>10</title>
<ellipse fill="none" stroke="#000000" cx="267.0366" cy="-267.0366" rx="21.4286" ry="21.4286"/>
<text text-anchor="middle" x="267.0366" y="-262.8366" font-family="Times,serif" font-size="14.00" fill="#000000">10</text>
</g>
<!-- 1&#45;&#45;10 -->
<g id="edge10" class="edge">
<title>1&#45;&#45;10</title>
<path fill="none" stroke="#000000" d="M242.2723,-182.4862C247.4573,-200.1889 255.519,-227.7132 261.026,-246.5153"/>
</g>
<!-- 4 -->
<g id="node7" class="node">
<title>4</title>
<ellipse fill="none" stroke="#000000" cx="114.3015" cy="-216.1249" rx="17.5726" ry="17.5726"/>
<text text-anchor="middle" x="114.3015" y="-211.9249" font-family="Times,serif" font-size="14.00" fill="#000000">4</text>
</g>
<!-- 1&#45;&#45;4 -->
<g id="edge21" class="edge">
<title>1&#45;&#45;4</title>
<path fill="none" stroke="#000000" d="M220.8915,-171.9739C197.3829,-181.7114 154.2368,-199.5831 130.6907,-209.3363"/>
</g>
<!-- 6 -->
<g id="node11" class="node">
<title>6</title>
<ellipse fill="none" stroke="#000000" cx="114.3015" cy="-114.3015" rx="17.5726" ry="17.5726"/>
<text text-anchor="middle" x="114.3015" y="-110.1015" font-family="Times,serif" font-size="14.00" fill="#000000">6</text>
</g>
<!-- 1&#45;&#45;6 -->
<g id="edge32" class="edge">
<title>1&#45;&#45;6</title>
<path fill="none" stroke="#000000" d="M220.8915,-158.4525C197.3829,-148.715 154.2368,-130.8433 130.6907,-121.0902"/>
</g>
<!-- 16 -->
<g id="node16" class="node">
<title>16</title>
<ellipse fill="none" stroke="#000000" cx="267.0366" cy="-63.3898" rx="21.4286" ry="21.4286"/>
<text text-anchor="middle" x="267.0366" y="-59.1898" font-family="Times,serif" font-size="14.00" fill="#000000">16</text>
</g>
<!-- 1&#45;&#45;16 -->
<g id="edge13" class="edge">
<title>1&#45;&#45;16</title>
<path fill="none" stroke="#000000" d="M242.2723,-147.9403C247.4573,-130.2375 255.519,-102.7132 261.026,-83.9111"/>
</g>
<!-- 9 -->
<g id="node2" class="node">
<title>9</title>
<ellipse fill="none" stroke="#000000" cx="309.2132" cy="-165.2132" rx="17.5726" ry="17.5726"/>
<text text-anchor="middle" x="309.2132" y="-161.0132" font-family="Times,serif" font-size="14.00" fill="#000000">9</text>
</g>
<!-- 2 -->
<g id="node3" class="node">
<title>2</title>
<ellipse fill="none" stroke="#000000" cx="216.1249" cy="-216.1249" rx="17.5726" ry="17.5726"/>
<text text-anchor="middle" x="216.1249" y="-211.9249" font-family="Times,serif" font-size="14.00" fill="#000000">2</text>
</g>
<!-- 2&#45;&#45;9 -->
<g id="edge17" class="edge">
<title>2&#45;&#45;9</title>
<path fill="none" stroke="#000000" d="M231.9161,-207.4884C249.1376,-198.0696 276.5262,-183.0903 293.6552,-173.7221"/>
</g>
<!-- 5 -->
<g id="node9" class="node">
<title>5</title>
<ellipse fill="none" stroke="#000000" cx="93.2132" cy="-165.2132" rx="17.5726" ry="17.5726"/>
<text text-anchor="middle" x="93.2132" y="-161.0132" font-family="Times,serif" font-size="14.00" fill="#000000">5</text>
</g>
<!-- 2&#45;&#45;5 -->
<g id="edge9" class="edge">
<title>2&#45;&#45;5</title>
<path fill="none" stroke="#000000" d="M199.8032,-209.3642C176.2946,-199.6267 133.1485,-181.7549 109.6024,-172.0018"/>
</g>
<!-- 7 -->
<g id="node13" class="node">
<title>7</title>
<ellipse fill="none" stroke="#000000" cx="165.2132" cy="-93.2132" rx="17.5726" ry="17.5726"/>
<text text-anchor="middle" x="165.2132" y="-89.0132" font-family="Times,serif" font-size="14.00" fill="#000000">7</text>
</g>
<!-- 2&#45;&#45;7 -->
<g id="edge22" class="edge">
<title>2&#45;&#45;7</title>
<path fill="none" stroke="#000000" d="M209.3642,-199.8032C199.6267,-176.2946 181.7549,-133.1485 172.0018,-109.6024"/>
</g>
<!-- 10&#45;&#45;9 -->
<g id="edge31" class="edge">
<title>10&#45;&#45;9</title>
<path fill="none" stroke="#000000" d="M275.1687,-247.404C283.1159,-228.2176 295.0713,-199.3547 302.4952,-181.4318"/>
</g>
<!-- 3 -->
<g id="node5" class="node">
<title>3</title>
<ellipse fill="none" stroke="#000000" cx="165.2132" cy="-237.2132" rx="17.5726" ry="17.5726"/>
<text text-anchor="middle" x="165.2132" y="-233.0132" font-family="Times,serif" font-size="14.00" fill="#000000">3</text>
</g>
<!-- 10&#45;&#45;3 -->
<g id="edge5" class="edge">
<title>10&#45;&#45;3</title>
<path fill="none" stroke="#000000" d="M246.4311,-261.0014C227.4867,-255.4527 199.7402,-247.3259 182.0808,-242.1536"/>
</g>
<!-- 11 -->
<g id="node6" class="node">
<title>11</title>
<ellipse fill="none" stroke="#000000" cx="165.2132" cy="-309.2132" rx="21.4286" ry="21.4286"/>
<text text-anchor="middle" x="165.2132" y="-305.0132" font-family="Times,serif" font-size="14.00" fill="#000000">11</text>
</g>
<!-- 10&#45;&#45;11 -->
<g id="edge27" class="edge">
<title>10&#45;&#45;11</title>
<path fill="none" stroke="#000000" d="M247.404,-275.1687C229.489,-282.5893 203.1374,-293.5045 185.1329,-300.9622"/>
</g>
<!-- 3&#45;&#45;6 -->
<g id="edge15" class="edge">
<title>3&#45;&#45;6</title>
<path fill="none" stroke="#000000" d="M158.4525,-220.8915C148.715,-197.3829 130.8433,-154.2368 121.0902,-130.6907"/>
</g>
<!-- 8 -->
<g id="node15" class="node">
<title>8</title>
<ellipse fill="none" stroke="#000000" cx="216.1249" cy="-114.3015" rx="17.5726" ry="17.5726"/>
<text text-anchor="middle" x="216.1249" y="-110.1015" font-family="Times,serif" font-size="14.00" fill="#000000">8</text>
</g>
<!-- 3&#45;&#45;8 -->
<g id="edge16" class="edge">
<title>3&#45;&#45;8</title>
<path fill="none" stroke="#000000" d="M171.9739,-220.8915C181.7114,-197.3829 199.5831,-154.2368 209.3363,-130.6907"/>
</g>
<!-- 11&#45;&#45;2 -->
<g id="edge12" class="edge">
<title>11&#45;&#45;2</title>
<path fill="none" stroke="#000000" d="M175.5159,-290.3754C184.9881,-273.0562 198.8614,-247.69 207.6911,-231.5455"/>
</g>
<!-- 11&#45;&#45;4 -->
<g id="edge24" class="edge">
<title>11&#45;&#45;4</title>
<path fill="none" stroke="#000000" d="M154.9105,-290.3754C145.4383,-273.0562 131.565,-247.69 122.7353,-231.5455"/>
</g>
<!-- 12 -->
<g id="node8" class="node">
<title>12</title>
<ellipse fill="none" stroke="#000000" cx="63.3898" cy="-267.0366" rx="21.4286" ry="21.4286"/>
<text text-anchor="middle" x="63.3898" y="-262.8366" font-family="Times,serif" font-size="14.00" fill="#000000">12</text>
</g>
<!-- 11&#45;&#45;12 -->
<g id="edge7" class="edge">
<title>11&#45;&#45;12</title>
<path fill="none" stroke="#000000" d="M145.5806,-301.0811C127.6656,-293.6605 101.314,-282.7453 83.3096,-275.2876"/>
</g>
<!-- 4&#45;&#45;7 -->
<g id="edge8" class="edge">
<title>4&#45;&#45;7</title>
<path fill="none" stroke="#000000" d="M121.0622,-199.8032C130.7998,-176.2946 148.6715,-133.1485 158.4246,-109.6024"/>
</g>
<!-- 12&#45;&#45;3 -->
<g id="edge30" class="edge">
<title>12&#45;&#45;3</title>
<path fill="none" stroke="#000000" d="M83.9953,-261.0014C102.9397,-255.4527 130.6862,-247.3259 148.3456,-242.1536"/>
</g>
<!-- 12&#45;&#45;5 -->
<g id="edge29" class="edge">
<title>12&#45;&#45;5</title>
<path fill="none" stroke="#000000" d="M69.425,-246.4311C74.9737,-227.4867 83.1005,-199.7402 88.2728,-182.0808"/>
</g>
<!-- 13 -->
<g id="node10" class="node">
<title>13</title>
<ellipse fill="none" stroke="#000000" cx="21.2132" cy="-165.2132" rx="21.4286" ry="21.4286"/>
<text text-anchor="middle" x="21.2132" y="-161.0132" font-family="Times,serif" font-size="14.00" fill="#000000">13</text>
</g>
<!-- 12&#45;&#45;13 -->
<g id="edge28" class="edge">
<title>12&#45;&#45;13</title>
<path fill="none" stroke="#000000" d="M55.2578,-247.404C47.8371,-229.489 36.9219,-203.1374 29.4642,-185.1329"/>
</g>
<!-- 5&#45;&#45;8 -->
<g id="edge6" class="edge">
<title>5&#45;&#45;8</title>
<path fill="none" stroke="#000000" d="M109.5349,-158.4525C133.0435,-148.715 176.1896,-130.8433 199.7357,-121.0902"/>
</g>
<!-- 13&#45;&#45;4 -->
<g id="edge25" class="edge">
<title>13&#45;&#45;4</title>
<path fill="none" stroke="#000000" d="M40.051,-175.5159C57.3702,-184.9881 82.7364,-198.8614 98.8809,-207.6911"/>
</g>
<!-- 13&#45;&#45;6 -->
<g id="edge26" class="edge">
<title>13&#45;&#45;6</title>
<path fill="none" stroke="#000000" d="M40.051,-154.9105C57.3702,-145.4383 82.7364,-131.565 98.8809,-122.7353"/>
</g>
<!-- 14 -->
<g id="node12" class="node">
<title>14</title>
<ellipse fill="none" stroke="#000000" cx="63.3898" cy="-63.3898" rx="21.4286" ry="21.4286"/>
<text text-anchor="middle" x="63.3898" y="-59.1898" font-family="Times,serif" font-size="14.00" fill="#000000">14</text>
</g>
<!-- 13&#45;&#45;14 -->
<g id="edge3" class="edge">
<title>13&#45;&#45;14</title>
<path fill="none" stroke="#000000" d="M29.3453,-145.5806C36.7659,-127.6656 47.6811,-101.314 55.1388,-83.3096"/>
</g>
<!-- 14&#45;&#45;5 -->
<g id="edge2" class="edge">
<title>14&#45;&#45;5</title>
<path fill="none" stroke="#000000" d="M69.425,-83.9953C74.9737,-102.9397 83.1005,-130.6862 88.2728,-148.3456"/>
</g>
<!-- 14&#45;&#45;7 -->
<g id="edge19" class="edge">
<title>14&#45;&#45;7</title>
<path fill="none" stroke="#000000" d="M83.9953,-69.425C102.9397,-74.9737 130.6862,-83.1005 148.3456,-88.2728"/>
</g>
<!-- 15 -->
<g id="node14" class="node">
<title>15</title>
<ellipse fill="none" stroke="#000000" cx="165.2132" cy="-21.2132" rx="21.4286" ry="21.4286"/>
<text text-anchor="middle" x="165.2132" y="-17.0132" font-family="Times,serif" font-size="14.00" fill="#000000">15</text>
</g>
<!-- 14&#45;&#45;15 -->
<g id="edge11" class="edge">
<title>14&#45;&#45;15</title>
<path fill="none" stroke="#000000" d="M83.0224,-55.2578C100.9374,-47.8371 127.289,-36.9219 145.2935,-29.4642"/>
</g>
<!-- 15&#45;&#45;6 -->
<g id="edge1" class="edge">
<title>15&#45;&#45;6</title>
<path fill="none" stroke="#000000" d="M154.9105,-40.051C145.4383,-57.3702 131.565,-82.7364 122.7353,-98.8809"/>
</g>
<!-- 15&#45;&#45;8 -->
<g id="edge4" class="edge">
<title>15&#45;&#45;8</title>
<path fill="none" stroke="#000000" d="M175.5159,-40.051C184.9881,-57.3702 198.8614,-82.7364 207.6911,-98.8809"/>
</g>
<!-- 15&#45;&#45;16 -->
<g id="edge23" class="edge">
<title>15&#45;&#45;16</title>
<path fill="none" stroke="#000000" d="M184.8458,-29.3453C202.7608,-36.7659 229.1124,-47.6811 247.1169,-55.1388"/>
</g>
<!-- 8&#45;&#45;9 -->
<g id="edge18" class="edge">
<title>8&#45;&#45;9</title>
<path fill="none" stroke="#000000" d="M231.9161,-122.938C249.1376,-132.3568 276.5262,-147.3361 293.6552,-156.7043"/>
</g>
<!-- 16&#45;&#45;9 -->
<g id="edge14" class="edge">
<title>16&#45;&#45;9</title>
<path fill="none" stroke="#000000" d="M275.1687,-83.0224C283.1159,-102.2088 295.0713,-131.0717 302.4952,-148.9946"/>
</g>
<!-- 16&#45;&#45;7 -->
<g id="edge20" class="edge">
<title>16&#45;&#45;7</title>
<path fill="none" stroke="#000000" d="M246.4311,-69.425C227.4867,-74.9737 199.7402,-83.1005 182.0808,-88.2728"/>
</g>
</g>
</svg>
