<?xml version="1.0" encoding="UTF-8" standalone="no"?>
<!DOCTYPE svg PUBLIC "-//W3C//DTD SVG 1.1//EN"
 "http://www.w3.org/Graphics/SVG/1.1/DTD/svg11.dtd">
<!-- Generated by graphviz version 2.40.1 (20161225.0304)
 -->
<!-- Title: G Pages: 1 -->
<svg width="185pt" height="504pt"
 viewBox="0.00 0.00 184.73 504.00" xmlns="http://www.w3.org/2000/svg" xmlns:xlink="http://www.w3.org/1999/xlink">
<g id="graph0" class="graph" transform="scale(.9826 .9826) rotate(0) translate(4 508.9203)">
<title>G</title>
<polygon fill="#ffffff" stroke="transparent" points="-4,4 -4,-508.9203 183.9964,-508.9203 183.9964,4 -4,4"/>
<!-- A -->
<g id="node1" class="node">
<title>A</title>
<ellipse fill="none" stroke="#000000" cx="90.4602" cy="-486.4602" rx="18.4204" ry="18.4204"/>
<text text-anchor="middle" x="90.4602" y="-482.2602" font-family="Times,serif" font-size="14.00" fill="#000000">A</text>
</g>
<!-- B -->
<g id="node2" class="node">
<title>B</title>
<ellipse fill="none" stroke="#000000" cx="90.4602" cy="-414.4602" rx="17.8318" ry="17.8318"/>
<text text-anchor="middle" x="90.4602" y="-410.2602" font-family="Times,serif" font-size="14.00" fill="#000000">B</text>
</g>
<!-- A&#45;&gt;B -->
<g id="edge1" class="edge">
<title>A&#45;&gt;B</title>
<path fill="none" stroke="#000000" d="M90.4602,-467.9184C90.4602,-460.3013 90.4602,-451.3083 90.4602,-442.8931"/>
<polygon fill="#000000" stroke="#000000" points="93.9603,-442.6898 90.4602,-432.6899 86.9603,-442.6899 93.9603,-442.6898"/>
</g>
<!-- C -->
<g id="node3" class="node">
<title>C</title>
<ellipse fill="none" stroke="#000000" cx="18.4602" cy="-342.4602" rx="17.8318" ry="17.8318"/>
<text text-anchor="middle" x="18.4602" y="-338.2602" font-family="Times,serif" font-size="14.00" fill="#000000">C</text>
</g>
<!-- B&#45;&gt;C -->
<g id="edge2" class="edge">
<title>B&#45;&gt;C</title>
<path fill="none" stroke="#000000" d="M77.588,-401.588C66.7351,-390.7351 51.019,-375.019 38.5173,-362.5173"/>
<polygon fill="#000000" stroke="#000000" points="40.7669,-359.8171 31.2209,-355.2209 35.8171,-364.7669 40.7669,-359.8171"/>
</g>
<!-- D -->
<g id="node4" class="node">
<title>D</title>
<ellipse fill="none" stroke="#000000" cx="90.4602" cy="-342.4602" rx="18.4204" ry="18.4204"/>
<text text-anchor="middle" x="90.4602" y="-338.2602" font-family="Times,serif" font-size="14.00" fill="#000000">D</text>
</g>
<!-- B&#45;&gt;D -->
<g id="edge3" class="edge">
<title>B&#45;&gt;D</title>
<path fill="none" stroke="#000000" d="M90.4602,-396.2915C90.4602,-388.7929 90.4602,-379.9134 90.4602,-371.5507"/>
<polygon fill="#000000" stroke="#000000" points="93.9603,-371.3773 90.4602,-361.3773 86.9603,-371.3773 93.9603,-371.3773"/>
</g>
<!-- E -->
<g id="node5" class="node">
<title>E</title>
<ellipse fill="none" stroke="#000000" cx="162.4602" cy="-342.4602" rx="17.5726" ry="17.5726"/>
<text text-anchor="middle" x="162.4602" y="-338.2602" font-family="Times,serif" font-size="14.00" fill="#000000">E</text>
</g>
<!-- B&#45;&gt;E -->
<g id="edge4" class="edge">
<title>B&#45;&gt;E</title>
<path fill="none" stroke="#000000" d="M103.3323,-401.588C114.1852,-390.7351 129.9013,-375.019 142.403,-362.5173"/>
<polygon fill="#000000" stroke="#000000" points="145.1032,-364.7668 149.6994,-355.2209 140.1535,-359.8171 145.1032,-364.7668"/>
</g>
<!-- G -->
<g id="node7" class="node">
<title>G</title>
<ellipse fill="none" stroke="#000000" cx="18.4602" cy="-234.4602" rx="18.4204" ry="18.4204"/>
<text text-anchor="middle" x="18.4602" y="-230.2602" font-family="Times,serif" font-size="14.00" fill="#000000">G</text>
</g>
<!-- C&#45;&gt;G -->
<g id="edge5" class="edge">
<title>C&#45;&gt;G</title>
<path fill="none" stroke="#000000" d="M18.4602,-324.1394C18.4602,-307.4842 18.4602,-282.6326 18.4602,-263.3115"/>
<polygon fill="#000000" stroke="#000000" points="21.9603,-263.2337 18.4602,-253.2338 14.9603,-263.2338 21.9603,-263.2337"/>
</g>
<!-- F -->
<g id="node6" class="node">
<title>F</title>
<ellipse fill="none" stroke="#000000" cx="162.4602" cy="-234.4602" rx="17.5726" ry="17.5726"/>
<text text-anchor="middle" x="162.4602" y="-230.2602" font-family="Times,serif" font-size="14.00" fill="#000000">F</text>
</g>
<!-- D&#45;&gt;F -->
<g id="edge6" class="edge">
<title>D&#45;&gt;F</title>
<path fill="none" stroke="#000000" d="M100.776,-326.9864C112.8884,-308.8178 133.0948,-278.5082 147.063,-257.5559"/>
<polygon fill="#000000" stroke="#000000" points="149.9908,-259.4738 152.6257,-249.2119 144.1665,-255.5909 149.9908,-259.4738"/>
</g>
<!-- D&#45;&gt;G -->
<g id="edge7" class="edge">
<title>D&#45;&gt;G</title>
<path fill="none" stroke="#000000" d="M80.1443,-326.9864C68.168,-309.0219 48.2786,-279.1878 34.3305,-258.2656"/>
<polygon fill="#000000" stroke="#000000" points="37.2161,-256.2843 28.7569,-249.9052 31.3917,-260.1672 37.2161,-256.2843"/>
</g>
<!-- H -->
<g id="node8" class="node">
<title>H</title>
<ellipse fill="none" stroke="#000000" cx="90.4602" cy="-126.4602" rx="18.4204" ry="18.4204"/>
<text text-anchor="middle" x="90.4602" y="-122.2602" font-family="Times,serif" font-size="14.00" fill="#000000">H</text>
</g>
<!-- E&#45;&gt;H -->
<g id="edge8" class="edge">
<title>E&#45;&gt;H</title>
<path fill="none" stroke="#000000" d="M156.8104,-325.511C144.416,-288.3278 114.7429,-199.3085 99.635,-153.9848"/>
<polygon fill="#000000" stroke="#000000" points="102.8675,-152.6139 96.3847,-144.2339 96.2267,-154.8275 102.8675,-152.6139"/>
</g>
<!-- J -->
<g id="node10" class="node">
<title>J</title>
<ellipse fill="none" stroke="#000000" cx="18.4602" cy="-126.4602" rx="17.5726" ry="17.5726"/>
<text text-anchor="middle" x="18.4602" y="-122.2602" font-family="Times,serif" font-size="14.00" fill="#000000">J</text>
</g>
<!-- E&#45;&gt;J -->
<g id="edge9" class="edge">
<title>E&#45;&gt;J</title>
<path fill="none" stroke="#000000" d="M152.5625,-327.6136C127.892,-290.6079 63.5247,-194.057 33.8513,-149.5469"/>
<polygon fill="#000000" stroke="#000000" points="36.6959,-147.504 28.2367,-141.125 30.8716,-151.387 36.6959,-147.504"/>
</g>
<!-- F&#45;&gt;H -->
<g id="edge10" class="edge">
<title>F&#45;&gt;H</title>
<path fill="none" stroke="#000000" d="M152.4489,-219.4432C140.5478,-201.5916 120.5329,-171.5692 106.4728,-150.4791"/>
<polygon fill="#000000" stroke="#000000" points="109.3119,-148.428 100.8527,-142.0489 103.4875,-152.3109 109.3119,-148.428"/>
</g>
<!-- F&#45;&gt;J -->
<g id="edge11" class="edge">
<title>F&#45;&gt;J</title>
<path fill="none" stroke="#000000" d="M148.3906,-223.908C123.399,-205.1643 71.0711,-165.9183 41.0052,-143.369"/>
<polygon fill="#000000" stroke="#000000" points="42.9001,-140.4151 32.8001,-137.2151 38.7001,-146.0152 42.9001,-140.4151"/>
</g>
<!-- G&#45;&gt;H -->
<g id="edge12" class="edge">
<title>G&#45;&gt;H</title>
<path fill="none" stroke="#000000" d="M28.776,-218.9864C40.7523,-201.0219 60.6417,-171.1878 74.5898,-150.2656"/>
<polygon fill="#000000" stroke="#000000" points="77.5286,-152.1672 80.1634,-141.9052 71.7042,-148.2843 77.5286,-152.1672"/>
</g>
<!-- G&#45;&gt;J -->
<g id="edge13" class="edge">
<title>G&#45;&gt;J</title>
<path fill="none" stroke="#000000" d="M18.4602,-215.648C18.4602,-198.7186 18.4602,-173.6166 18.4602,-154.3524"/>
<polygon fill="#000000" stroke="#000000" points="21.9603,-154.3396 18.4602,-144.3396 14.9603,-154.3396 21.9603,-154.3396"/>
</g>
<!-- I -->
<g id="node9" class="node">
<title>I</title>
<ellipse fill="none" stroke="#000000" cx="90.4602" cy="-18.4602" rx="17.5726" ry="17.5726"/>
<text text-anchor="middle" x="90.4602" y="-14.2602" font-family="Times,serif" font-size="14.00" fill="#000000">I</text>
</g>
<!-- H&#45;&gt;I -->
<g id="edge14" class="edge">
<title>H&#45;&gt;I</title>
<path fill="none" stroke="#000000" d="M90.4602,-107.648C90.4602,-90.7186 90.4602,-65.6166 90.4602,-46.3524"/>
<polygon fill="#000000" stroke="#000000" points="93.9603,-46.3396 90.4602,-36.3396 86.9603,-46.3396 93.9603,-46.3396"/>
</g>
<!-- K -->
<g id="node11" class="node">
<title>K</title>
<ellipse fill="none" stroke="#000000" cx="18.4602" cy="-18.4602" rx="18.4204" ry="18.4204"/>
<text text-anchor="middle" x="18.4602" y="-14.2602" font-family="Times,serif" font-size="14.00" fill="#000000">K</text>
</g>
<!-- H&#45;&gt;K -->
<g id="edge15" class="edge">
<title>H&#45;&gt;K</title>
<path fill="none" stroke="#000000" d="M80.1443,-110.9864C68.168,-93.0219 48.2786,-63.1878 34.3305,-42.2656"/>
<polygon fill="#000000" stroke="#000000" points="37.2161,-40.2843 28.7569,-33.9052 31.3917,-44.1672 37.2161,-40.2843"/>
</g>
<!-- L -->
<g id="node12" class="node">
<title>L</title>
<ellipse fill="none" stroke="#000000" cx="162.4602" cy="-18.4602" rx="17.5726" ry="17.5726"/>
<text text-anchor="middle" x="162.4602" y="-14.2602" font-family="Times,serif" font-size="14.00" fill="#000000">L</text>
</g>
<!-- H&#45;&gt;L -->
<g id="edge16" class="edge">
<title>H&#45;&gt;L</title>
<path fill="none" stroke="#000000" d="M100.776,-110.9864C112.8884,-92.8178 133.0948,-62.5082 147.063,-41.5559"/>
<polygon fill="#000000" stroke="#000000" points="149.9908,-43.4738 152.6257,-33.2119 144.1665,-39.5909 149.9908,-43.4738"/>
</g>
<!-- J&#45;&gt;I -->
<g id="edge17" class="edge">
<title>J&#45;&gt;I</title>
<path fill="none" stroke="#000000" d="M28.4714,-111.4432C40.5078,-93.3887 60.8434,-62.8853 74.9245,-41.7637"/>
<polygon fill="#000000" stroke="#000000" points="77.899,-43.6115 80.5339,-33.3496 72.0747,-39.7286 77.899,-43.6115"/>
</g>
<!-- J&#45;&gt;K -->
<g id="edge18" class="edge">
<title>J&#45;&gt;K</title>
<path fill="none" stroke="#000000" d="M18.4602,-108.6262C18.4602,-91.9444 18.4602,-66.7404 18.4602,-47.217"/>
<polygon fill="#000000" stroke="#000000" points="21.9603,-47.0452 18.4602,-37.0452 14.9603,-47.0453 21.9603,-47.0452"/>
</g>
<!-- J&#45;&gt;L -->
<g id="edge19" class="edge">
<title>J&#45;&gt;L</title>
<path fill="none" stroke="#000000" d="M32.5297,-115.908C57.5214,-97.1643 109.8492,-57.9183 139.9151,-35.369"/>
<polygon fill="#000000" stroke="#000000" points="142.2202,-38.0152 148.1202,-29.2151 138.0202,-32.4151 142.2202,-38.0152"/>
</g>
</g>
</svg>
