<?xml version="1.0" encoding="UTF-8" standalone="no"?>
<!DOCTYPE svg PUBLIC "-//W3C//DTD SVG 1.1//EN"
 "http://www.w3.org/Graphics/SVG/1.1/DTD/svg11.dtd">
<!-- Generated by graphviz version 2.40.1 (20161225.0304)
 -->
<!-- Title: G Pages: 1 -->
<svg width="210pt" height="193pt"
 viewBox="0.00 0.00 210.03 192.78" xmlns="http://www.w3.org/2000/svg" xmlns:xlink="http://www.w3.org/1999/xlink">
<g id="graph0" class="graph" transform="scale(1 1) rotate(0) translate(4 188.7812)">
<title>G</title>
<polygon fill="#ffffff" stroke="transparent" points="-4,4 -4,-188.7812 206.0263,-188.7812 206.0263,4 -4,4"/>
<!-- 1 -->
<g id="node1" class="node">
<title>1</title>
<ellipse fill="none" stroke="#000000" cx="101.0372" cy="-80.5938" rx="18" ry="18"/>
<text text-anchor="middle" x="101.0372" y="-76.3938" font-family="Times,serif" font-size="14.00" fill="#000000">1</text>
</g>
<!-- 1&#45;&gt;1 -->
<g id="edge1" class="edge">
<title>1&#45;&gt;1</title>
<path fill="none" stroke="#000000" d="M118.0745,-86.973C127.8951,-88.2749 137.0372,-86.1485 137.0372,-80.5938 137.0372,-77.1222 133.466,-74.9896 128.3901,-74.1963"/>
<polygon fill="#000000" stroke="#000000" points="128.0682,-70.6968 118.0745,-74.2146 128.0807,-77.6968 128.0682,-70.6968"/>
</g>
<!-- 2 -->
<g id="node2" class="node">
<title>2</title>
<ellipse fill="none" stroke="#000000" cx="77.6197" cy="-147.5304" rx="18" ry="18"/>
<text text-anchor="middle" x="77.6197" y="-143.3304" font-family="Times,serif" font-size="14.00" fill="#000000">2</text>
</g>
<!-- 1&#45;&gt;2 -->
<g id="edge2" class="edge">
<title>1&#45;&gt;2</title>
<path fill="none" stroke="#000000" d="M95.0066,-97.8317C92.5944,-104.7267 89.758,-112.8343 87.0838,-120.4781"/>
<polygon fill="#000000" stroke="#000000" points="83.7098,-119.5235 83.7112,-130.1183 90.3172,-121.8351 83.7098,-119.5235"/>
</g>
<!-- 3 -->
<g id="node3" class="node">
<title>3</title>
<ellipse fill="none" stroke="#000000" cx="71.6693" cy="-18" rx="18" ry="18"/>
<text text-anchor="middle" x="71.6693" y="-13.8" font-family="Times,serif" font-size="14.00" fill="#000000">3</text>
</g>
<!-- 1&#45;&gt;3 -->
<g id="edge3" class="edge">
<title>1&#45;&gt;3</title>
<path fill="none" stroke="#000000" d="M93.3211,-64.148C90.3768,-57.8726 86.9459,-50.5602 83.6949,-43.6311"/>
<polygon fill="#000000" stroke="#000000" points="86.852,-42.1197 79.4358,-34.5533 80.5148,-45.093 86.852,-42.1197"/>
</g>
<!-- 4 -->
<g id="node4" class="node">
<title>4</title>
<ellipse fill="none" stroke="#000000" cx="127.9773" cy="-166.7812" rx="18" ry="18"/>
<text text-anchor="middle" x="127.9773" y="-162.5812" font-family="Times,serif" font-size="14.00" fill="#000000">4</text>
</g>
<!-- 1&#45;&gt;4 -->
<g id="edge4" class="edge">
<title>1&#45;&gt;4</title>
<path fill="none" stroke="#000000" d="M106.4889,-98.0351C110.2135,-109.9509 115.2241,-125.9808 119.4699,-139.5642"/>
<polygon fill="#000000" stroke="#000000" points="116.2096,-140.8655 122.5337,-149.3659 122.8908,-138.7771 116.2096,-140.8655"/>
</g>
<!-- 5 -->
<g id="node5" class="node">
<title>5</title>
<ellipse fill="none" stroke="#000000" cx="166.0263" cy="-26.2094" rx="18" ry="18"/>
<text text-anchor="middle" x="166.0263" y="-22.0094" font-family="Times,serif" font-size="14.00" fill="#000000">5</text>
</g>
<!-- 1&#45;&gt;5 -->
<g id="edge5" class="edge">
<title>1&#45;&gt;5</title>
<path fill="none" stroke="#000000" d="M115.1388,-68.7932C123.57,-61.7378 134.4643,-52.6212 144.0084,-44.6345"/>
<polygon fill="#000000" stroke="#000000" points="146.5293,-47.0888 151.9521,-37.9869 142.0369,-41.7204 146.5293,-47.0888"/>
</g>
<!-- 6 -->
<g id="node6" class="node">
<title>6</title>
<ellipse fill="none" stroke="#000000" cx="32.9861" cy="-95.4735" rx="18" ry="18"/>
<text text-anchor="middle" x="32.9861" y="-91.2735" font-family="Times,serif" font-size="14.00" fill="#000000">6</text>
</g>
<!-- 1&#45;&gt;6 -->
<g id="edge6" class="edge">
<title>1&#45;&gt;6</title>
<path fill="none" stroke="#000000" d="M83.1575,-84.5033C76.335,-85.9951 68.3851,-87.7334 60.8518,-89.3806"/>
<polygon fill="#000000" stroke="#000000" points="60.0041,-85.9831 50.9826,-91.5385 61.4994,-92.8216 60.0041,-85.9831"/>
</g>
<!-- 7 -->
<g id="node7" class="node">
<title>7</title>
<ellipse fill="none" stroke="#000000" cx="18" cy="-38.4481" rx="18" ry="18"/>
<text text-anchor="middle" x="18" y="-34.2481" font-family="Times,serif" font-size="14.00" fill="#000000">7</text>
</g>
<!-- 1&#45;&gt;7 -->
<g id="edge7" class="edge">
<title>1&#45;&gt;7</title>
<path fill="none" stroke="#000000" d="M84.6317,-72.2672C72.8414,-66.283 56.723,-58.102 43.2928,-51.2855"/>
<polygon fill="#000000" stroke="#000000" points="44.5901,-48.019 34.0888,-46.614 41.4219,-54.261 44.5901,-48.019"/>
</g>
<!-- 8 -->
<g id="node8" class="node">
<title>8</title>
<ellipse fill="none" stroke="#000000" cx="158.0631" cy="-123.2324" rx="18" ry="18"/>
<text text-anchor="middle" x="158.0631" y="-119.0324" font-family="Times,serif" font-size="14.00" fill="#000000">8</text>
</g>
<!-- 1&#45;&gt;8 -->
<g id="edge8" class="edge">
<title>1&#45;&gt;8</title>
<path fill="none" stroke="#000000" d="M115.7228,-91.5743C121.7557,-96.0852 128.8784,-101.4109 135.5435,-106.3944"/>
<polygon fill="#000000" stroke="#000000" points="133.52,-109.2516 143.6247,-112.4367 137.7118,-103.6454 133.52,-109.2516"/>
</g>
<!-- 2&#45;&gt;2 -->
<g id="edge9" class="edge">
<title>2&#45;&gt;2</title>
<path fill="none" stroke="#000000" d="M94.657,-153.9096C104.4776,-155.2115 113.6197,-153.0851 113.6197,-147.5304 113.6197,-144.0587 110.0486,-141.9262 104.9726,-141.1329"/>
<polygon fill="#000000" stroke="#000000" points="104.6507,-137.6333 94.657,-141.1512 104.6632,-144.6333 104.6507,-137.6333"/>
</g>
<!-- 2&#45;&gt;4 -->
<g id="edge10" class="edge">
<title>2&#45;&gt;4</title>
<path fill="none" stroke="#000000" d="M94.6685,-154.0478C96.8834,-154.8946 99.1923,-155.7772 101.5159,-156.6655"/>
<polygon fill="#000000" stroke="#000000" points="100.3555,-159.9689 110.9461,-160.2705 102.8551,-153.4304 100.3555,-159.9689"/>
</g>
<!-- 2&#45;&gt;6 -->
<g id="edge11" class="edge">
<title>2&#45;&gt;6</title>
<path fill="none" stroke="#000000" d="M65.8927,-133.8531C61.5197,-128.7527 56.4403,-122.8286 51.6001,-117.1833"/>
<polygon fill="#000000" stroke="#000000" points="53.9558,-114.5537 44.7897,-109.2403 48.6417,-119.1101 53.9558,-114.5537"/>
</g>
<!-- 2&#45;&gt;8 -->
<g id="edge12" class="edge">
<title>2&#45;&gt;8</title>
<path fill="none" stroke="#000000" d="M95.0747,-142.2581C105.5107,-139.1059 118.9958,-135.0327 130.8094,-131.4644"/>
<polygon fill="#000000" stroke="#000000" points="132.0813,-134.7365 140.6421,-128.4944 130.0573,-128.0355 132.0813,-134.7365"/>
</g>
<!-- 3&#45;&gt;3 -->
<g id="edge13" class="edge">
<title>3&#45;&gt;3</title>
<path fill="none" stroke="#000000" d="M88.7066,-24.3792C98.5272,-25.6811 107.6693,-23.5547 107.6693,-18 107.6693,-14.5283 104.0982,-12.3958 99.0222,-11.6025"/>
<polygon fill="#000000" stroke="#000000" points="98.7003,-8.1029 88.7066,-11.6208 98.7128,-15.1029 98.7003,-8.1029"/>
</g>
<!-- 3&#45;&gt;6 -->
<g id="edge14" class="edge">
<title>3&#45;&gt;6</title>
<path fill="none" stroke="#000000" d="M63.4656,-34.4301C58.3023,-44.771 51.5326,-58.3292 45.6849,-70.0406"/>
<polygon fill="#000000" stroke="#000000" points="42.3812,-68.8225 41.0453,-79.3327 48.6439,-71.9495 42.3812,-68.8225"/>
</g>
<!-- 4&#45;&gt;4 -->
<g id="edge15" class="edge">
<title>4&#45;&gt;4</title>
<path fill="none" stroke="#000000" d="M145.0146,-173.1605C154.8352,-174.4623 163.9773,-172.3359 163.9773,-166.7812 163.9773,-163.3096 160.4062,-161.1771 155.3302,-160.3837"/>
<polygon fill="#000000" stroke="#000000" points="155.0084,-156.8842 145.0146,-160.402 155.0209,-163.8842 155.0084,-156.8842"/>
</g>
<!-- 4&#45;&gt;8 -->
<g id="edge16" class="edge">
<title>4&#45;&gt;8</title>
<path fill="none" stroke="#000000" d="M138.4999,-151.55C139.6182,-149.9311 140.7734,-148.2591 141.9372,-146.5745"/>
<polygon fill="#000000" stroke="#000000" points="144.8944,-148.4517 147.6988,-138.2347 139.1351,-144.4728 144.8944,-148.4517"/>
</g>
<!-- 5&#45;&gt;5 -->
<g id="edge17" class="edge">
<title>5&#45;&gt;5</title>
<path fill="none" stroke="#000000" d="M183.0636,-32.5886C192.8842,-33.8904 202.0263,-31.764 202.0263,-26.2094 202.0263,-22.7377 198.4551,-20.6052 193.3792,-19.8118"/>
<polygon fill="#000000" stroke="#000000" points="193.0573,-16.3123 183.0636,-19.8301 193.0698,-23.3123 193.0573,-16.3123"/>
</g>
<!-- 6&#45;&gt;6 -->
<g id="edge18" class="edge">
<title>6&#45;&gt;6</title>
<path fill="none" stroke="#000000" d="M50.0234,-101.8528C59.844,-103.1546 68.9861,-101.0282 68.9861,-95.4735 68.9861,-92.0019 65.4149,-89.8694 60.339,-89.076"/>
<polygon fill="#000000" stroke="#000000" points="60.0171,-85.5765 50.0234,-89.0943 60.0296,-92.5765 60.0171,-85.5765"/>
</g>
<!-- 7&#45;&gt;7 -->
<g id="edge19" class="edge">
<title>7&#45;&gt;7</title>
<path fill="none" stroke="#000000" d="M35.0373,-44.8273C44.8579,-46.1291 54,-44.0027 54,-38.4481 54,-34.9764 50.4289,-32.8439 45.3529,-32.0505"/>
<polygon fill="#000000" stroke="#000000" points="45.031,-28.551 35.0373,-32.0688 45.0435,-35.551 45.031,-28.551"/>
</g>
<!-- 8&#45;&gt;8 -->
<g id="edge20" class="edge">
<title>8&#45;&gt;8</title>
<path fill="none" stroke="#000000" d="M175.1004,-129.6116C184.921,-130.9135 194.0631,-128.7871 194.0631,-123.2324 194.0631,-119.7608 190.492,-117.6282 185.416,-116.8349"/>
<polygon fill="#000000" stroke="#000000" points="185.0941,-113.3354 175.1004,-116.8532 185.1066,-120.3354 185.0941,-113.3354"/>
</g>
</g>
</svg>
