<?xml version="1.0" encoding="UTF-8" standalone="no"?>
<!DOCTYPE svg PUBLIC "-//W3C//DTD SVG 1.1//EN"
 "http://www.w3.org/Graphics/SVG/1.1/DTD/svg11.dtd">
<!-- Generated by graphviz version 2.40.1 (20161225.0304)
 -->
<!-- Title: G Pages: 1 -->
<svg width="316pt" height="204pt"
 viewBox="0.00 0.00 316.44 203.80" xmlns="http://www.w3.org/2000/svg" xmlns:xlink="http://www.w3.org/1999/xlink">
<g id="graph0" class="graph" transform="scale(1 1) rotate(0) translate(4 199.8)">
<title>G</title>
<polygon fill="#ffffff" stroke="transparent" points="-4,4 -4,-199.8 312.4446,-199.8 312.4446,4 -4,4"/>
<!-- A -->
<g id="node1" class="node">
<title>A</title>
<polygon fill="none" stroke="#000000" points="26.1601,-195.7008 -.0535,-195.7008 -.0535,-171.0992 26.1601,-171.0992 26.1601,-195.7008"/>
<text text-anchor="middle" x="13.0533" y="-179.2" font-family="Times,serif" font-size="14.00" fill="#000000">A</text>
</g>
<!-- B -->
<g id="node2" class="node">
<title>B</title>
<polygon fill="none" stroke="#000000" points="185.6422,-195.7008 159.9644,-195.7008 159.9644,-171.0992 185.6422,-171.0992 185.6422,-195.7008"/>
<text text-anchor="middle" x="172.8033" y="-179.2" font-family="Times,serif" font-size="14.00" fill="#000000">B</text>
</g>
<!-- C -->
<g id="node3" class="node">
<title>C</title>
<polygon fill="none" stroke="#000000" points="25.8922,-105.7008 .2144,-105.7008 .2144,-81.0992 25.8922,-81.0992 25.8922,-105.7008"/>
<text text-anchor="middle" x="13.0533" y="-89.2" font-family="Times,serif" font-size="14.00" fill="#000000">C</text>
</g>
<!-- D -->
<g id="node4" class="node">
<title>D</title>
<polygon fill="none" stroke="#000000" points="179.1601,-105.7008 152.9465,-105.7008 152.9465,-81.0992 179.1601,-81.0992 179.1601,-105.7008"/>
<text text-anchor="middle" x="166.0533" y="-89.2" font-family="Times,serif" font-size="14.00" fill="#000000">D</text>
</g>
<!-- E -->
<g id="node5" class="node">
<title>E</title>
<polygon fill="none" stroke="#000000" points="235.7099,-79.0608 211.5967,-79.0608 211.5967,-54.4592 235.7099,-54.4592 235.7099,-79.0608"/>
<text text-anchor="middle" x="223.6533" y="-62.56" font-family="Times,serif" font-size="14.00" fill="#000000">E</text>
</g>
<!-- F -->
<g id="node6" class="node">
<title>F</title>
<polygon fill="none" stroke="#000000" points="308.3369,-105.7008 284.7697,-105.7008 284.7697,-81.0992 308.3369,-81.0992 308.3369,-105.7008"/>
<text text-anchor="middle" x="296.5533" y="-89.2" font-family="Times,serif" font-size="14.00" fill="#000000">F</text>
</g>
<!-- G -->
<g id="node7" class="node">
<title>G</title>
<polygon fill="none" stroke="#000000" points="26.1601,-24.7008 -.0535,-24.7008 -.0535,-.0992 26.1601,-.0992 26.1601,-24.7008"/>
<text text-anchor="middle" x="13.0533" y="-8.2" font-family="Times,serif" font-size="14.00" fill="#000000">G</text>
</g>
<!-- H -->
<g id="node8" class="node">
<title>H</title>
<polygon fill="none" stroke="#000000" points="206.1601,-24.7008 179.9465,-24.7008 179.9465,-.0992 206.1601,-.0992 206.1601,-24.7008"/>
<text text-anchor="middle" x="193.0533" y="-8.2" font-family="Times,serif" font-size="14.00" fill="#000000">H</text>
</g>
</g>
</svg>
