<?xml version="1.0" encoding="UTF-8" standalone="no"?>
<!DOCTYPE svg PUBLIC "-//W3C//DTD SVG 1.1//EN"
 "http://www.w3.org/Graphics/SVG/1.1/DTD/svg11.dtd">
<!-- Generated by graphviz version 2.40.1 (20161225.0304)
 -->
<!-- Title: G Pages: 1 -->
<svg width="316pt" height="204pt"
 viewBox="0.00 0.00 316.44 203.80" xmlns="http://www.w3.org/2000/svg" xmlns:xlink="http://www.w3.org/1999/xlink">
<g id="graph0" class="graph" transform="scale(1 1) rotate(0) translate(4 199.8)">
<title>G</title>
<polygon fill="#ffffff" stroke="transparent" points="-4,4 -4,-199.8 312.4446,-199.8 312.4446,4 -4,4"/>
<!-- A -->
<g id="node1" class="node">
<title>A</title>
<polygon fill="none" stroke="#000000" points="26.1601,-195.7008 -.0535,-195.7008 -.0535,-171.0992 26.1601,-171.0992 26.1601,-195.7008"/>
<text text-anchor="middle" x="13.0533" y="-179.2" font-family="Times,serif" font-size="14.00" fill="#000000">A</text>
</g>
<!-- B -->
<g id="node2" class="node">
<title>B</title>
<polygon fill="none" stroke="#000000" points="185.6422,-195.7008 159.9644,-195.7008 159.9644,-171.0992 185.6422,-171.0992 185.6422,-195.7008"/>
<text text-anchor="middle" x="172.8033" y="-179.2" font-family="Times,serif" font-size="14.00" fill="#000000">B</text>
</g>
<!-- A&#45;&#45;B -->
<g id="edge3" class="edge">
<title>A&#45;&#45;B</title>
<path fill="none" stroke="#000000" d="M26.1263,-183.4C56.2314,-183.4 130.1509,-183.4 159.9961,-183.4"/>
</g>
<!-- C -->
<g id="node3" class="node">
<title>C</title>
<polygon fill="none" stroke="#000000" points="25.8922,-105.7008 .2144,-105.7008 .2144,-81.0992 25.8922,-81.0992 25.8922,-105.7008"/>
<text text-anchor="middle" x="13.0533" y="-89.2" font-family="Times,serif" font-size="14.00" fill="#000000">C</text>
</g>
<!-- A&#45;&#45;C -->
<g id="edge1" class="edge">
<title>A&#45;&#45;C</title>
<path fill="none" stroke="#000000" d="M13.0533,-170.8859C13.0533,-153.6911 13.0533,-122.9465 13.0533,-105.8078"/>
</g>
<!-- B&#45;&#45;C -->
<g id="edge7" class="edge">
<title>B&#45;&#45;C</title>
<path fill="none" stroke="#000000" d="M160.0003,-176.1871C130.0885,-159.3353 55.8892,-117.5329 25.9172,-100.6473"/>
</g>
<!-- D -->
<g id="node4" class="node">
<title>D</title>
<polygon fill="none" stroke="#000000" points="179.1601,-105.7008 152.9465,-105.7008 152.9465,-81.0992 179.1601,-81.0992 179.1601,-105.7008"/>
<text text-anchor="middle" x="166.0533" y="-89.2" font-family="Times,serif" font-size="14.00" fill="#000000">D</text>
</g>
<!-- B&#45;&#45;D -->
<g id="edge2" class="edge">
<title>B&#45;&#45;D</title>
<path fill="none" stroke="#000000" d="M171.8647,-170.8859C170.5751,-153.6911 168.2693,-122.9465 166.9839,-105.8078"/>
</g>
<!-- F -->
<g id="node6" class="node">
<title>F</title>
<polygon fill="none" stroke="#000000" points="308.3369,-105.7008 284.7697,-105.7008 284.7697,-81.0992 308.3369,-81.0992 308.3369,-105.7008"/>
<text text-anchor="middle" x="296.5533" y="-89.2" font-family="Times,serif" font-size="14.00" fill="#000000">F</text>
</g>
<!-- B&#45;&#45;F -->
<g id="edge8" class="edge">
<title>B&#45;&#45;F</title>
<path fill="none" stroke="#000000" d="M185.5806,-174.1074C209.6646,-156.5918 261.4462,-118.9324 284.7559,-101.9799"/>
</g>
<!-- G -->
<g id="node7" class="node">
<title>G</title>
<polygon fill="none" stroke="#000000" points="26.1601,-24.7008 -.0535,-24.7008 -.0535,-.0992 26.1601,-.0992 26.1601,-24.7008"/>
<text text-anchor="middle" x="13.0533" y="-8.2" font-family="Times,serif" font-size="14.00" fill="#000000">G</text>
</g>
<!-- C&#45;&#45;G -->
<g id="edge11" class="edge">
<title>C&#45;&#45;G</title>
<path fill="none" stroke="#000000" d="M13.0533,-81.0978C13.0533,-65.8735 13.0533,-40.0956 13.0533,-24.8179"/>
</g>
<!-- E -->
<g id="node5" class="node">
<title>E</title>
<polygon fill="none" stroke="#000000" points="235.7099,-79.0608 211.5967,-79.0608 211.5967,-54.4592 235.7099,-54.4592 235.7099,-79.0608"/>
<text text-anchor="middle" x="223.6533" y="-62.56" font-family="Times,serif" font-size="14.00" fill="#000000">E</text>
</g>
<!-- D&#45;&#45;E -->
<g id="edge5" class="edge">
<title>D&#45;&#45;E</title>
<path fill="none" stroke="#000000" d="M179.1236,-87.355C188.8158,-82.8724 201.9364,-76.8041 211.4224,-72.4168"/>
</g>
<!-- D&#45;&#45;F -->
<g id="edge9" class="edge">
<title>D&#45;&#45;F</title>
<path fill="none" stroke="#000000" d="M179.5276,-93.4C205.0554,-93.4 260.0921,-93.4 284.4882,-93.4"/>
</g>
<!-- H -->
<g id="node8" class="node">
<title>H</title>
<polygon fill="none" stroke="#000000" points="206.1601,-24.7008 179.9465,-24.7008 179.9465,-.0992 206.1601,-.0992 206.1601,-24.7008"/>
<text text-anchor="middle" x="193.0533" y="-8.2" font-family="Times,serif" font-size="14.00" fill="#000000">H</text>
</g>
<!-- D&#45;&#45;H -->
<g id="edge6" class="edge">
<title>D&#45;&#45;H</title>
<path fill="none" stroke="#000000" d="M170.154,-81.0978C175.2288,-65.8735 183.8214,-40.0956 188.914,-24.8179"/>
</g>
<!-- E&#45;&#45;F -->
<g id="edge4" class="edge">
<title>E&#45;&#45;F</title>
<path fill="none" stroke="#000000" d="M236.0198,-71.2791C249.5064,-76.2076 270.9552,-84.0456 284.3694,-88.9476"/>
</g>
<!-- E&#45;&#45;H -->
<g id="edge12" class="edge">
<title>E&#45;&#45;H</title>
<path fill="none" stroke="#000000" d="M216.7097,-54.4249C211.7723,-45.6538 205.1603,-33.9076 200.1818,-25.0635"/>
</g>
<!-- F&#45;&#45;H -->
<g id="edge10" class="edge">
<title>F&#45;&#45;H</title>
<path fill="none" stroke="#000000" d="M284.6805,-84.1083C265.2467,-68.8992 226.7755,-38.7913 206.4152,-22.8571"/>
</g>
<!-- G&#45;&#45;H -->
<g id="edge13" class="edge">
<title>G&#45;&#45;H</title>
<path fill="none" stroke="#000000" d="M26.2891,-12.4C59.5766,-12.4 146.4897,-12.4 179.7981,-12.4"/>
</g>
</g>
</svg>
