<?xml version="1.0" encoding="UTF-8" standalone="no"?>
<!DOCTYPE svg PUBLIC "-//W3C//DTD SVG 1.1//EN"
 "http://www.w3.org/Graphics/SVG/1.1/DTD/svg11.dtd">
<!-- Generated by graphviz version 2.40.1 (20161225.0304)
 -->
<!-- Title: G Pages: 1 -->
<svg width="266pt" height="263pt"
 viewBox="0.00 0.00 266.43 262.75" xmlns="http://www.w3.org/2000/svg" xmlns:xlink="http://www.w3.org/1999/xlink">
<g id="graph0" class="graph" transform="scale(1 1) rotate(0) translate(4 258.7495)">
<title>G</title>
<polygon fill="#ffffff" stroke="transparent" points="-4,4 -4,-258.7495 262.4264,-258.7495 262.4264,4 -4,4"/>
<!-- 1 -->
<g id="node1" class="node">
<title>1</title>
<ellipse fill="none" stroke="#000000" cx="21.2132" cy="-237.2132" rx="17.5726" ry="17.5726"/>
<text text-anchor="middle" x="21.2132" y="-233.0132" font-family="Times,serif" font-size="14.00" fill="#000000">1</text>
</g>
<!-- 2 -->
<g id="node2" class="node">
<title>2</title>
<ellipse fill="none" stroke="#000000" cx="93.2132" cy="-237.2132" rx="17.5726" ry="17.5726"/>
<text text-anchor="middle" x="93.2132" y="-233.0132" font-family="Times,serif" font-size="14.00" fill="#000000">2</text>
</g>
<!-- 1&#45;&gt;2 -->
<g id="edge1" class="edge">
<title>1&#45;&gt;2</title>
<path fill="none" stroke="#000000" d="M39.011,-237.2132C47.0325,-237.2132 56.6901,-237.2132 65.6175,-237.2132"/>
<polygon fill="#000000" stroke="#000000" points="65.6202,-240.7133 75.6202,-237.2132 65.6201,-233.7133 65.6202,-240.7133"/>
</g>
<!-- 3 -->
<g id="node3" class="node">
<title>3</title>
<ellipse fill="none" stroke="#000000" cx="165.2132" cy="-237.2132" rx="17.5726" ry="17.5726"/>
<text text-anchor="middle" x="165.2132" y="-233.0132" font-family="Times,serif" font-size="14.00" fill="#000000">3</text>
</g>
<!-- 2&#45;&gt;3 -->
<g id="edge2" class="edge">
<title>2&#45;&gt;3</title>
<path fill="none" stroke="#000000" d="M111.011,-237.2132C119.0325,-237.2132 128.6901,-237.2132 137.6175,-237.2132"/>
<polygon fill="#000000" stroke="#000000" points="137.6202,-240.7133 147.6202,-237.2132 137.6201,-233.7133 137.6202,-240.7133"/>
</g>
<!-- 6 -->
<g id="node6" class="node">
<title>6</title>
<ellipse fill="none" stroke="#000000" cx="93.2132" cy="-165.2132" rx="17.5726" ry="17.5726"/>
<text text-anchor="middle" x="93.2132" y="-161.0132" font-family="Times,serif" font-size="14.00" fill="#000000">6</text>
</g>
<!-- 2&#45;&gt;6 -->
<g id="edge3" class="edge">
<title>2&#45;&gt;6</title>
<path fill="none" stroke="#000000" d="M93.2132,-219.4154C93.2132,-211.3939 93.2132,-201.7363 93.2132,-192.8089"/>
<polygon fill="#000000" stroke="#000000" points="96.7133,-192.8062 93.2132,-182.8062 89.7133,-192.8063 96.7133,-192.8062"/>
</g>
<!-- 4 -->
<g id="node4" class="node">
<title>4</title>
<ellipse fill="none" stroke="#000000" cx="237.2132" cy="-237.2132" rx="17.5726" ry="17.5726"/>
<text text-anchor="middle" x="237.2132" y="-233.0132" font-family="Times,serif" font-size="14.00" fill="#000000">4</text>
</g>
<!-- 3&#45;&gt;4 -->
<g id="edge4" class="edge">
<title>3&#45;&gt;4</title>
<path fill="none" stroke="#000000" d="M183.011,-237.2132C191.0325,-237.2132 200.6901,-237.2132 209.6175,-237.2132"/>
<polygon fill="#000000" stroke="#000000" points="209.6202,-240.7133 219.6202,-237.2132 209.6201,-233.7133 209.6202,-240.7133"/>
</g>
<!-- 7 -->
<g id="node7" class="node">
<title>7</title>
<ellipse fill="none" stroke="#000000" cx="165.2132" cy="-165.2132" rx="17.5726" ry="17.5726"/>
<text text-anchor="middle" x="165.2132" y="-161.0132" font-family="Times,serif" font-size="14.00" fill="#000000">7</text>
</g>
<!-- 3&#45;&gt;7 -->
<g id="edge5" class="edge">
<title>3&#45;&gt;7</title>
<path fill="none" stroke="#000000" d="M165.2132,-219.4154C165.2132,-211.3939 165.2132,-201.7363 165.2132,-192.8089"/>
<polygon fill="#000000" stroke="#000000" points="168.7133,-192.8062 165.2132,-182.8062 161.7133,-192.8063 168.7133,-192.8062"/>
</g>
<!-- 5 -->
<g id="node5" class="node">
<title>5</title>
<ellipse fill="none" stroke="#000000" cx="21.2132" cy="-165.2132" rx="17.5726" ry="17.5726"/>
<text text-anchor="middle" x="21.2132" y="-161.0132" font-family="Times,serif" font-size="14.00" fill="#000000">5</text>
</g>
<!-- 5&#45;&gt;1 -->
<g id="edge6" class="edge">
<title>5&#45;&gt;1</title>
<path fill="none" stroke="#000000" d="M21.2132,-183.011C21.2132,-191.0325 21.2132,-200.6901 21.2132,-209.6175"/>
<polygon fill="#000000" stroke="#000000" points="17.7133,-209.6201 21.2132,-219.6202 24.7133,-209.6202 17.7133,-209.6201"/>
</g>
<!-- 6&#45;&gt;5 -->
<g id="edge7" class="edge">
<title>6&#45;&gt;5</title>
<path fill="none" stroke="#000000" d="M75.4154,-165.2132C67.3939,-165.2132 57.7363,-165.2132 48.8089,-165.2132"/>
<polygon fill="#000000" stroke="#000000" points="48.8063,-161.7133 38.8062,-165.2132 48.8062,-168.7133 48.8063,-161.7133"/>
</g>
<!-- 9 -->
<g id="node9" class="node">
<title>9</title>
<ellipse fill="none" stroke="#000000" cx="21.2132" cy="-93.2132" rx="17.5726" ry="17.5726"/>
<text text-anchor="middle" x="21.2132" y="-89.0132" font-family="Times,serif" font-size="14.00" fill="#000000">9</text>
</g>
<!-- 6&#45;&gt;9 -->
<g id="edge8" class="edge">
<title>6&#45;&gt;9</title>
<path fill="none" stroke="#000000" d="M80.6718,-152.6718C69.8615,-141.8615 54.0525,-126.0525 41.4528,-113.4528"/>
<polygon fill="#000000" stroke="#000000" points="43.6417,-110.692 34.0957,-106.0957 38.692,-115.6417 43.6417,-110.692"/>
</g>
<!-- 8 -->
<g id="node8" class="node">
<title>8</title>
<ellipse fill="none" stroke="#000000" cx="237.2132" cy="-165.2132" rx="17.5726" ry="17.5726"/>
<text text-anchor="middle" x="237.2132" y="-161.0132" font-family="Times,serif" font-size="14.00" fill="#000000">8</text>
</g>
<!-- 7&#45;&gt;8 -->
<g id="edge9" class="edge">
<title>7&#45;&gt;8</title>
<path fill="none" stroke="#000000" d="M183.011,-165.2132C191.0325,-165.2132 200.6901,-165.2132 209.6175,-165.2132"/>
<polygon fill="#000000" stroke="#000000" points="209.6202,-168.7133 219.6202,-165.2132 209.6201,-161.7133 209.6202,-168.7133"/>
</g>
<!-- 8&#45;&gt;3 -->
<g id="edge10" class="edge">
<title>8&#45;&gt;3</title>
<path fill="none" stroke="#000000" d="M224.6718,-177.7546C213.8615,-188.565 198.0525,-204.3739 185.4528,-216.9736"/>
<polygon fill="#000000" stroke="#000000" points="182.692,-214.7847 178.0957,-224.3307 187.6417,-219.7344 182.692,-214.7847"/>
</g>
<!-- 12 -->
<g id="node12" class="node">
<title>12</title>
<ellipse fill="none" stroke="#000000" cx="237.2132" cy="-93.2132" rx="21.4286" ry="21.4286"/>
<text text-anchor="middle" x="237.2132" y="-89.0132" font-family="Times,serif" font-size="14.00" fill="#000000">12</text>
</g>
<!-- 8&#45;&gt;12 -->
<g id="edge11" class="edge">
<title>8&#45;&gt;12</title>
<path fill="none" stroke="#000000" d="M237.2132,-147.4154C237.2132,-140.6016 237.2132,-132.6071 237.2132,-124.8826"/>
<polygon fill="#000000" stroke="#000000" points="240.7133,-124.6526 237.2132,-114.6526 233.7133,-124.6526 240.7133,-124.6526"/>
</g>
<!-- 10 -->
<g id="node10" class="node">
<title>10</title>
<ellipse fill="none" stroke="#000000" cx="93.2132" cy="-93.2132" rx="21.4286" ry="21.4286"/>
<text text-anchor="middle" x="93.2132" y="-89.0132" font-family="Times,serif" font-size="14.00" fill="#000000">10</text>
</g>
<!-- 10&#45;&gt;7 -->
<g id="edge12" class="edge">
<title>10&#45;&gt;7</title>
<path fill="none" stroke="#000000" d="M108.4826,-108.4826C119.1829,-119.1829 133.5899,-133.5899 145.2075,-145.2075"/>
<polygon fill="#000000" stroke="#000000" points="142.8262,-147.776 152.3722,-152.3722 147.776,-142.8262 142.8262,-147.776"/>
</g>
<!-- 11 -->
<g id="node11" class="node">
<title>11</title>
<ellipse fill="none" stroke="#000000" cx="165.2132" cy="-93.2132" rx="21.4286" ry="21.4286"/>
<text text-anchor="middle" x="165.2132" y="-89.0132" font-family="Times,serif" font-size="14.00" fill="#000000">11</text>
</g>
<!-- 16 -->
<g id="node16" class="node">
<title>16</title>
<ellipse fill="none" stroke="#000000" cx="237.2132" cy="-21.2132" rx="21.4286" ry="21.4286"/>
<text text-anchor="middle" x="237.2132" y="-17.0132" font-family="Times,serif" font-size="14.00" fill="#000000">16</text>
</g>
<!-- 12&#45;&gt;16 -->
<g id="edge13" class="edge">
<title>12&#45;&gt;16</title>
<path fill="none" stroke="#000000" d="M237.2132,-71.6108C237.2132,-65.7729 237.2132,-59.3302 237.2132,-53.0581"/>
<polygon fill="#000000" stroke="#000000" points="240.7133,-52.8003 237.2132,-42.8003 233.7133,-52.8004 240.7133,-52.8003"/>
</g>
<!-- 13 -->
<g id="node13" class="node">
<title>13</title>
<ellipse fill="none" stroke="#000000" cx="21.2132" cy="-21.2132" rx="21.4286" ry="21.4286"/>
<text text-anchor="middle" x="21.2132" y="-17.0132" font-family="Times,serif" font-size="14.00" fill="#000000">13</text>
</g>
<!-- 14 -->
<g id="node14" class="node">
<title>14</title>
<ellipse fill="none" stroke="#000000" cx="93.2132" cy="-21.2132" rx="21.4286" ry="21.4286"/>
<text text-anchor="middle" x="93.2132" y="-17.0132" font-family="Times,serif" font-size="14.00" fill="#000000">14</text>
</g>
<!-- 13&#45;&gt;14 -->
<g id="edge14" class="edge">
<title>13&#45;&gt;14</title>
<path fill="none" stroke="#000000" d="M41.6529,-27.3683C47.9827,-27.8835 55.1072,-28.0641 61.9941,-27.91"/>
<polygon fill="#000000" stroke="#000000" points="62.6572,-31.3816 72.4723,-27.3925 62.3118,-24.3901 62.6572,-31.3816"/>
</g>
<!-- 14&#45;&gt;9 -->
<g id="edge15" class="edge">
<title>14&#45;&gt;9</title>
<path fill="none" stroke="#000000" d="M77.9439,-36.4826C67.2435,-47.1829 52.8365,-61.5899 41.2189,-73.2075"/>
<polygon fill="#000000" stroke="#000000" points="38.6504,-70.8262 34.0542,-80.3722 43.6002,-75.776 38.6504,-70.8262"/>
</g>
<!-- 14&#45;&gt;13 -->
<g id="edge16" class="edge">
<title>14&#45;&gt;13</title>
<path fill="none" stroke="#000000" d="M72.7735,-15.0581C66.4437,-14.5429 59.3192,-14.3623 52.4323,-14.5164"/>
<polygon fill="#000000" stroke="#000000" points="51.7692,-11.0448 41.9541,-15.0339 52.1146,-18.0363 51.7692,-11.0448"/>
</g>
<!-- 15 -->
<g id="node15" class="node">
<title>15</title>
<ellipse fill="none" stroke="#000000" cx="165.2132" cy="-21.2132" rx="21.4286" ry="21.4286"/>
<text text-anchor="middle" x="165.2132" y="-17.0132" font-family="Times,serif" font-size="14.00" fill="#000000">15</text>
</g>
<!-- 15&#45;&gt;10 -->
<g id="edge17" class="edge">
<title>15&#45;&gt;10</title>
<path fill="none" stroke="#000000" d="M149.9439,-36.4826C140.0162,-46.4102 126.8979,-59.5285 115.7769,-70.6495"/>
<polygon fill="#000000" stroke="#000000" points="113.0568,-68.4199 108.4605,-77.9659 118.0065,-73.3697 113.0568,-68.4199"/>
</g>
<!-- 16&#45;&gt;15 -->
<g id="edge18" class="edge">
<title>16&#45;&gt;15</title>
<path fill="none" stroke="#000000" d="M215.6108,-21.2132C209.7729,-21.2132 203.3302,-21.2132 197.0581,-21.2132"/>
<polygon fill="#000000" stroke="#000000" points="196.8004,-17.7133 186.8003,-21.2132 196.8003,-24.7133 196.8004,-17.7133"/>
</g>
</g>
</svg>
