<?xml version="1.0" encoding="UTF-8" standalone="no"?>
<!DOCTYPE svg PUBLIC "-//W3C//DTD SVG 1.1//EN"
 "http://www.w3.org/Graphics/SVG/1.1/DTD/svg11.dtd">
<!-- Generated by graphviz version 2.40.1 (20161225.0304)
 -->
<!-- Title: G Pages: 1 -->
<svg width="284pt" height="272pt"
 viewBox="0.00 0.00 284.04 272.31" xmlns="http://www.w3.org/2000/svg" xmlns:xlink="http://www.w3.org/1999/xlink">
<g id="graph0" class="graph" transform="scale(1 1) rotate(0) translate(4 268.312)">
<title>G</title>
<polygon fill="#ffffff" stroke="transparent" points="-4,4 -4,-268.312 280.0421,-268.312 280.0421,4 -4,4"/>
<!-- A -->
<g id="node1" class="node">
<title>A</title>
<ellipse fill="none" stroke="#000000" cx="18.4602" cy="-159.3324" rx="18.4204" ry="18.4204"/>
<text text-anchor="middle" x="18.4602" y="-155.1324" font-family="Times,serif" font-size="14.00" fill="#000000">A</text>
</g>
<!-- B -->
<g id="node2" class="node">
<title>B</title>
<ellipse fill="none" stroke="#000000" cx="138.2933" cy="-246.3963" rx="17.8318" ry="17.8318"/>
<text text-anchor="middle" x="138.2933" y="-242.1963" font-family="Times,serif" font-size="14.00" fill="#000000">B</text>
</g>
<!-- A&#45;&#45;B -->
<g id="edge1" class="edge">
<title>A&#45;&#45;B</title>
<path fill="none" stroke="#000000" d="M33.6371,-170.3591C56.8135,-187.1978 100.7394,-219.1118 123.6144,-235.7315"/>
<text text-anchor="middle" x="75.1257" y="-207.2453" font-family="Times,serif" font-size="14.00" fill="#000000">8</text>
</g>
<!-- E -->
<g id="node5" class="node">
<title>E</title>
<ellipse fill="none" stroke="#000000" cx="64.2323" cy="-18.4602" rx="17.5726" ry="17.5726"/>
<text text-anchor="middle" x="64.2323" y="-14.2602" font-family="Times,serif" font-size="14.00" fill="#000000">E</text>
</g>
<!-- A&#45;&#45;E -->
<g id="edge2" class="edge">
<title>A&#45;&#45;E</title>
<path fill="none" stroke="#000000" d="M24.1647,-141.7757C33.0317,-114.4858 50.0077,-62.239 58.7421,-35.3575"/>
<text text-anchor="middle" x="34.4534" y="-92.7666" font-family="Times,serif" font-size="14.00" fill="#000000">11</text>
</g>
<!-- C -->
<g id="node3" class="node">
<title>C</title>
<ellipse fill="none" stroke="#000000" cx="258.1264" cy="-159.3324" rx="17.8318" ry="17.8318"/>
<text text-anchor="middle" x="258.1264" y="-155.1324" font-family="Times,serif" font-size="14.00" fill="#000000">C</text>
</g>
<!-- B&#45;&#45;C -->
<g id="edge3" class="edge">
<title>B&#45;&#45;C</title>
<path fill="none" stroke="#000000" d="M152.9872,-235.7206C175.9864,-219.0107 220.2393,-186.859 243.3123,-170.0955"/>
<text text-anchor="middle" x="194.6497" y="-207.108" font-family="Times,serif" font-size="14.00" fill="#000000">2</text>
</g>
<!-- G -->
<g id="node7" class="node">
<title>G</title>
<ellipse fill="none" stroke="#000000" cx="184.336" cy="-99.8968" rx="18.4204" ry="18.4204"/>
<text text-anchor="middle" x="184.336" y="-95.6968" font-family="Times,serif" font-size="14.00" fill="#000000">G</text>
</g>
<!-- B&#45;&#45;G -->
<g id="edge4" class="edge">
<title>B&#45;&#45;G</title>
<path fill="none" stroke="#000000" d="M143.6651,-229.3042C152.4421,-201.3772 169.7732,-146.2327 178.7115,-117.7929"/>
<text text-anchor="middle" x="157.6883" y="-177.7486" font-family="Times,serif" font-size="14.00" fill="#000000">6</text>
</g>
<!-- D -->
<g id="node4" class="node">
<title>D</title>
<ellipse fill="none" stroke="#000000" cx="212.3542" cy="-18.4602" rx="18.4204" ry="18.4204"/>
<text text-anchor="middle" x="212.3542" y="-14.2602" font-family="Times,serif" font-size="14.00" fill="#000000">D</text>
</g>
<!-- C&#45;&#45;D -->
<g id="edge6" class="edge">
<title>C&#45;&#45;D</title>
<path fill="none" stroke="#000000" d="M252.5138,-142.0587C243.7767,-115.1685 227.0093,-63.5638 218.1571,-36.3196"/>
<text text-anchor="middle" x="231.8355" y="-93.3892" font-family="Times,serif" font-size="14.00" fill="#000000">5</text>
</g>
<!-- C&#45;&#45;G -->
<g id="edge5" class="edge">
<title>C&#45;&#45;G</title>
<path fill="none" stroke="#000000" d="M243.8989,-147.8726C230.916,-137.4154 211.8193,-122.0336 198.7716,-111.5242"/>
<text text-anchor="middle" x="214.3352" y="-133.8984" font-family="Times,serif" font-size="14.00" fill="#000000">14</text>
</g>
<!-- D&#45;&#45;E -->
<g id="edge8" class="edge">
<title>D&#45;&#45;E</title>
<path fill="none" stroke="#000000" d="M193.894,-18.4602C165.1997,-18.4602 110.2642,-18.4602 81.9992,-18.4602"/>
<text text-anchor="middle" x="134.4466" y="-22.6602" font-family="Times,serif" font-size="14.00" fill="#000000">3</text>
</g>
<!-- F -->
<g id="node6" class="node">
<title>F</title>
<ellipse fill="none" stroke="#000000" cx="92.2506" cy="-140.8958" rx="17.5726" ry="17.5726"/>
<text text-anchor="middle" x="92.2506" y="-136.6958" font-family="Times,serif" font-size="14.00" fill="#000000">F</text>
</g>
<!-- D&#45;&#45;F -->
<g id="edge7" class="edge">
<title>D&#45;&#45;F</title>
<path fill="none" stroke="#000000" d="M199.0421,-32.0307C175.5893,-55.9389 127.2455,-105.2214 104.5394,-128.3684"/>
<text text-anchor="middle" x="148.2907" y="-84.3996" font-family="Times,serif" font-size="14.00" fill="#000000">7</text>
</g>
<!-- E&#45;&#45;F -->
<g id="edge9" class="edge">
<title>E&#45;&#45;F</title>
<path fill="none" stroke="#000000" d="M68.1872,-35.7425C73.5271,-59.0771 82.9863,-100.4121 88.3158,-123.7014"/>
<text text-anchor="middle" x="74.7515" y="-83.9219" font-family="Times,serif" font-size="14.00" fill="#000000">2</text>
</g>
<!-- F&#45;&#45;G -->
<g id="edge10" class="edge">
<title>F&#45;&#45;G</title>
<path fill="none" stroke="#000000" d="M108.2906,-133.7543C124.7801,-126.4128 150.3629,-115.0225 167.2312,-107.5123"/>
<text text-anchor="middle" x="134.2609" y="-124.8333" font-family="Times,serif" font-size="14.00" fill="#000000">9</text>
</g>
</g>
</svg>
